PathFileType	4	(X/Y/Z)	D:\Research_projects\MuscleProsody\BulkSports2Dtrack\RetrackedSports2D\p1_sample60_cam2\p1_sample60_cam2_Sports2D\p1_sample60_cam2_Sports2D_px_person00.trc
DataRate	CameraRate	NumFrames	NumMarkers	Units	OrigDataRate	OrigDataStartFrame	OrigNumFrames
60	60	5	22	m	60	195	780
Frame#	Time	Hip			RHip			RKnee			RAnkle			RBigToe			RSmallToe			RHeel			LHip			LKnee			LAnkle			LBigToe			LSmallToe			LHeel			Neck			Head			Nose			RShoulder			RElbow			RWrist			LShoulder			LElbow			LWrist		
		X1	Y1	Z1	X2	Y2	Z2	X3	Y3	Z3	X4	Y4	Z4	X5	Y5	Z5	X6	Y6	Z6	X7	Y7	Z7	X8	Y8	Z8	X9	Y9	Z9	X10	Y10	Z10	X11	Y11	Z11	X12	Y12	Z12	X13	Y13	Z13	X14	Y14	Z14	X15	Y15	Z15	X16	Y16	Z16	X17	Y17	Z17	X18	Y18	Z18	X19	Y19	Z19	X20	Y20	Z20	X21	Y21	Z21	X22	Y22	Z22
195	3.25	243.3441282786502	466.59413607777213	0.0	213.5423815092895	476.3329545528635	0.0	215.61196022013658	603.7862634621755	0.0	216.54307935793005	711.689653035422	0.0	221.07288073838595	759.2798769578802	0.0	201.57500466077926	753.385430404422	0.0	220.15984528887748	719.68130138211	0.0	273.6014598530071	475.5249571780052	0.0	272.2364369563706	600.6885311783343	0.0	270.81413288011726	712.4353826257084	0.0	259.89369481184656	755.1234456110398	0.0	281.4388936781816	749.9878578765803	0.0	269.9983395614319	720.5954074747285	0.0	241.2073198236471	281.8878597871888	0.0	232.18435203252045	197.547555134361	0.0	228.68552264801968	242.8542878711124	0.0	188.51389096866788	292.1846700812265	0.0	125.64526994022927	244.9384965698993	0.0	146.70004779350947	150.6818088911588	0.0	297.5085423915965	289.65605786728804	0.0	363.93840217230104	250.6570700311682	0.0	354.8080049143744	158.26483664596893	0.0
196	3.2666666666666666	243.4539570886038	462.3317313255311	0.0	213.42857728094012	472.3326526624353	0.0	215.73275346961827	600.4329539902571	0.0	216.07667115553375	709.3796941251499	0.0	220.73452446198098	758.0304232193307	0.0	200.99952879327688	752.0306823015102	0.0	219.55230031786803	717.3913270661159	0.0	273.91903750762225	471.57031986413693	0.0	272.4634915040414	597.2756098456047	0.0	270.98187727406753	710.1404810725854	0.0	260.68428714750814	753.1574422687871	0.0	282.09951460568163	747.9697233750109	0.0	269.9855796644079	718.553332644797	0.0	241.27694534943925	277.71133851929824	0.0	232.27465645985353	193.24950310359208	0.0	228.8203239569826	238.72488086598912	0.0	188.49221959438225	287.88719832069415	0.0	126.29335953907346	239.19758192211188	0.0	148.30911233814578	144.44522204068676	0.0	297.58381596275444	285.258310039164	0.0	363.8346532708829	246.33232870416535	0.0	353.84634684930626	153.68762952531117	0.0
197	3.283333333333333	243.5244273789825	459.406801936326	0.0	213.32149653598555	469.52437696654397	0.0	215.8131572528502	598.1232718509258	0.0	215.73093308647546	707.7373978175297	0.0	220.39557601029864	757.1577053497067	0.0	200.51238281055691	751.0441294621869	0.0	219.0668555749283	715.7556741745451	0.0	274.16251875942834	468.8333786257748	0.0	272.5752268247309	594.9205251723604	0.0	271.1473814818782	708.4492419731175	0.0	261.58508175798	751.6097032410901	0.0	282.8545329284774	746.3309248080155	0.0	269.96661373035096	717.0746496044169	0.0	241.30471508702973	275.02338908743224	0.0	232.36582194908806	190.4400341089298	0.0	228.91598092844603	236.1958613023759	0.0	188.48549296744105	285.1728514805324	0.0	126.59020437479353	235.8619736047389	0.0	149.80225062422295	140.8928313962453	0.0	297.57168655107705	282.41987787669296	0.0	363.88626161343416	244.3062276119606	0.0	352.9536213610115	151.7235714093162	0.0
198	3.3	243.55339725520403	457.90418449268157	0.0	213.21776101213646	468.00006867527475	0.0	215.83589623909842	596.9724118692815	0.0	215.48077047671086	706.921078772488	0.0	220.07439970420904	756.771660795015	0.0	200.13437880096518	750.556561471922	0.0	218.6798209611217	714.9376535490514	0.0	274.32373498801593	467.39581698997426	0.0	272.5860015950355	593.7493700791915	0.0	271.3151414030447	707.5159099959584	0.0	262.5330548822469	750.6379537695378	0.0	283.6546024166234	745.2456051912961	0.0	269.95375078350594	716.2989116687594	0.0	241.29160683483866	273.8764234773331	0.0	232.45351209543762	189.16398667956577	0.0	228.9850011066263	235.26159944349908	0.0	188.50076321346788	284.05914829343106	0.0	126.55280091067351	234.85763183945446	0.0	151.10693717038407	139.9002847566782	0.0	297.4628039417917	281.18088095664814	0.0	364.06934617177524	244.5188934985323	0.0	352.1337112687572	152.27648920543746	0.0
199	3.3166666666666664	243.53532745315593	457.85893329969997	0.0	213.11200117751554	467.80419447389835	0.0	215.79021583589545	597.0338167508769	0.0	215.30215468440875	707.0291963767305	0.0	219.80622689839814	756.9302919330086	0.0	199.89527146971812	750.6491748335577	0.0	218.368642672473	715.036903569507	0.0	274.3934993148544	467.29052900228413	0.0	272.5138312067791	593.8206004887633	0.0	271.4805631037689	707.4523501855475	0.0	263.4436718610385	750.3673167169502	0.0	284.4259177948987	744.856479265985	0.0	269.9506810078554	716.3279960868588	0.0	241.23795195934318	274.29641573591806	0.0	232.53444009698526	189.43542087837494	0.0	229.04479927000907	235.9037033637966	0.0	188.54268723075782	284.53264317528317	0.0	126.21622695270136	236.09637197243975	0.0	152.15445410558473	141.33604043726393	0.0	297.2544889969017	281.55041606244436	0.0	364.3509205573933	246.89788704526003	0.0	351.38721637404865	155.23289793989002	0.0
